<?xml version="1.0" encoding="utf-8"?>
<!-- Generator: Adobe Illustrator 19.1.0, SVG Export Plug-In . SVG Version: 6.00 Build 0)  -->
<svg version="1.1" id="Layer_1" xmlns="http://www.w3.org/2000/svg" xmlns:xlink="http://www.w3.org/1999/xlink" x="0px" y="0px"
	 width="175px" height="110px" viewBox="0 0 175 110" enable-background="new 0 0 175 110" xml:space="preserve">
<g>
	<path fill-rule="evenodd" clip-rule="evenodd" fill="none" d="M0,1c0-0.6,0.4-1,1-1h173c0.6,0,1,0.4,1,1v108c0,0.6-0.4,1-1,1H1
		c-0.6,0-1-0.4-1-1V1z"/>
	<rect x="22.5" y="15" fill-rule="evenodd" clip-rule="evenodd" fill="#ED2924" width="130" height="80"/>
	<g>
		<polygon fill-rule="evenodd" clip-rule="evenodd" fill="#F3EA38" points="47,46.5 40.4,41.2 33.7,46.5 36.7,38.5 29.6,33.8 
			38.1,34.2 40.4,26 42.7,34.2 51.2,33.8 44.1,38.5 		"/>
		<polygon fill-rule="evenodd" clip-rule="evenodd" fill="#F3EA38" points="59.6,56.5 57.9,53.8 55,54.9 56.9,52.5 55,50 57.9,51.1 
			59.7,48.5 59.5,51.7 62.5,52.6 59.5,53.3 		"/>
		<polygon fill-rule="evenodd" clip-rule="evenodd" fill="#F3EA38" points="59.9,30 58.2,27.4 55.3,28.4 57.2,26 55.3,23.5 
			58.2,24.6 60,22.1 59.8,25.2 62.8,26.1 59.8,26.9 		"/>
		<polygon fill-rule="evenodd" clip-rule="evenodd" fill="#F3EA38" points="68.3,49 66,46.9 63.4,48.7 64.7,45.8 62.2,43.9 
			65.3,44.3 66.4,41.3 67,44.4 70.1,44.5 67.4,46 		"/>
		<polygon fill-rule="evenodd" clip-rule="evenodd" fill="#F3EA38" points="70.3,35.2 67.2,34.9 66.3,37.9 65.5,34.9 62.4,34.9 
			65,33.3 64.1,30.3 66.4,32.3 69,30.5 67.8,33.4 		"/>
	</g>
</g>
<rect fill-rule="evenodd" clip-rule="evenodd" fill="none" width="175" height="110"/>
</svg>
